STARTFONT 2.1
FONT -FontForge-Effects Eighty-Book-R-Normal--32-310-75-75-P-140-ISO10646-1
SIZE 31 75 75
FONTBOUNDINGBOX 13 33 0 -7
COMMENT "Generated by fontforge, http://fontforge.sourceforge.net"
COMMENT "Copyright 2013, 2017 Peter Hull. Licensed under SIL Open Font License 1.1"
STARTPROPERTIES 40
FOUNDRY "FontForge"
FAMILY_NAME "Effects Eighty"
WEIGHT_NAME "Book"
SLANT "R"
SETWIDTH_NAME "Normal"
ADD_STYLE_NAME ""
PIXEL_SIZE 32
POINT_SIZE 310
RESOLUTION_X 75
RESOLUTION_Y 75
SPACING "P"
AVERAGE_WIDTH 140
CHARSET_REGISTRY "ISO10646"
CHARSET_ENCODING "1"
FONTNAME_REGISTRY ""
CHARSET_COLLECTIONS "ISO10646-1"
FONT_NAME "EffectsEighty"
FACE_NAME "Effects Eighty"
COPYRIGHT "Copyright 2013, 2017 Peter Hull. Licensed under SIL Open Font License 1.1"
FONT_VERSION "1.100"
FONT_ASCENT 26
FONT_DESCENT 6
UNDERLINE_POSITION -3
UNDERLINE_THICKNESS 2
X_HEIGHT 13
CAP_HEIGHT 19
RAW_ASCENT 800
RAW_DESCENT 200
NORM_SPACE 14
RELATIVE_WEIGHT 40
RELATIVE_SETWIDTH 50
SUPERSCRIPT_X 0
SUPERSCRIPT_Y 11
SUPERSCRIPT_SIZE 19
SUBSCRIPT_X 0
SUBSCRIPT_Y 2
SUBSCRIPT_SIZE 19
FIGURE_WIDTH 14
AVG_LOWERCASE_WIDTH 140
AVG_UPPERCASE_WIDTH 140
ENDPROPERTIES
CHARS 101
STARTCHAR space
ENCODING 32
SWIDTH 450 0
DWIDTH 14 0
BBX 1 1 0 0
BITMAP
00
ENDCHAR
STARTCHAR exclam
ENCODING 33
SWIDTH 450 0
DWIDTH 14 0
BBX 3 21 5 -1
BITMAP
C0
E0
E0
C0
E0
E0
C0
E0
E0
E0
E0
E0
00
00
00
00
00
00
E0
E0
C0
ENDCHAR
STARTCHAR quotedbl
ENCODING 34
SWIDTH 450 0
DWIDTH 14 0
BBX 8 9 2 11
BITMAP
63
F7
67
63
F7
63
67
F7
63
ENDCHAR
STARTCHAR numbersign
ENCODING 35
SWIDTH 450 0
DWIDTH 14 0
BBX 13 21 0 -1
BITMAP
18C0
3DC0
19C0
18C0
3DC0
19C0
FFF0
FFF8
FFF0
18C0
3DC0
19C0
FEF0
FFF8
FFF0
18C0
3DC0
18C0
19C0
3DC0
18C0
ENDCHAR
STARTCHAR dollar
ENCODING 36
SWIDTH 450 0
DWIDTH 14 0
BBX 13 21 0 -1
BITMAP
0600
0700
0700
0600
1FF0
3FF8
FAF0
E700
E700
1FC0
3FC0
1FC0
0730
0738
0730
FFC0
FFC0
FFC0
0700
0700
0600
ENDCHAR
STARTCHAR percent
ENCODING 37
SWIDTH 450 0
DWIDTH 14 0
BBX 13 21 0 -1
BITMAP
7860
FCF0
F8E0
5840
F9C0
FDC0
DBC0
0380
0380
0700
0700
0700
0C00
0E00
0C00
18F0
3DF8
18F0
71F0
71F8
30F0
ENDCHAR
STARTCHAR ampersand
ENCODING 38
SWIDTH 450 0
DWIDTH 14 0
BBX 13 21 0 -1
BITMAP
3C00
7E00
7E00
2400
E700
E700
FE00
7E00
7E00
1830
3C38
1830
E660
E7F0
E760
E0C0
E1C0
E1C0
1F30
3F38
1E30
ENDCHAR
STARTCHAR quotesingle
ENCODING 39
SWIDTH 450 0
DWIDTH 14 0
BBX 4 6 5 14
BITMAP
70
70
70
E0
E0
C0
ENDCHAR
STARTCHAR parenleft
ENCODING 40
SWIDTH 450 0
DWIDTH 14 0
BBX 5 21 5 -1
BITMAP
18
38
38
10
70
70
F0
E0
E0
40
E0
E0
C0
E0
E0
70
70
70
18
38
18
ENDCHAR
STARTCHAR parenright
ENCODING 41
SWIDTH 450 0
DWIDTH 14 0
BBX 6 21 2 -1
BITMAP
60
F0
60
30
38
30
18
1C
1C
1C
1C
1C
1C
1C
1C
30
38
30
60
F0
60
ENDCHAR
STARTCHAR asterisk
ENCODING 42
SWIDTH 450 0
DWIDTH 14 0
BBX 13 15 0 5
BITMAP
18C0
3DC0
19C0
0F80
0F80
0F80
FFF0
FFF8
FFF0
0F80
0F80
0F80
19C0
3DC0
18C0
ENDCHAR
STARTCHAR plus
ENCODING 43
SWIDTH 450 0
DWIDTH 14 0
BBX 13 14 0 3
BITMAP
0600
0700
0700
0700
0700
0700
FFF0
FFF8
FEF0
0700
0700
0200
0700
0700
ENDCHAR
STARTCHAR comma
ENCODING 44
SWIDTH 450 0
DWIDTH 14 0
BBX 5 11 4 -6
BITMAP
F8
F8
F8
F8
F8
F8
38
38
78
70
70
ENDCHAR
STARTCHAR hyphen
ENCODING 45
SWIDTH 450 0
DWIDTH 14 0
BBX 13 3 0 8
BITMAP
FFF0
FFF8
FEF0
ENDCHAR
STARTCHAR period
ENCODING 46
SWIDTH 450 0
DWIDTH 14 0
BBX 6 6 2 -1
BITMAP
7C
FC
7C
7C
FC
78
ENDCHAR
STARTCHAR slash
ENCODING 47
SWIDTH 450 0
DWIDTH 14 0
BBX 11 21 1 -1
BITMAP
00C0
01E0
01C0
0080
0380
0380
0780
0700
0700
0E00
0E00
0E00
1800
1C00
1800
3000
7800
3000
E000
E000
6000
ENDCHAR
STARTCHAR zero
ENCODING 48
SWIDTH 450 0
DWIDTH 14 0
BBX 13 21 0 -1
BITMAP
0D80
0F80
0F80
0000
7060
70F0
7070
E038
E038
4030
E038
E038
4030
E038
E030
7060
70F0
3060
0F80
0F80
0F80
ENDCHAR
STARTCHAR one
ENCODING 49
SWIDTH 450 0
DWIDTH 14 0
BBX 8 21 2 -1
BITMAP
18
1C
1C
18
7C
FC
78
1C
1C
18
1C
1C
08
1C
1C
18
1C
1C
7F
FF
7F
ENDCHAR
STARTCHAR two
ENCODING 50
SWIDTH 450 0
DWIDTH 14 0
BBX 13 21 0 -1
BITMAP
3DE0
7FF0
7FE0
E030
E038
E030
0030
0038
0030
00C0
01C0
01C0
0600
0700
0700
1800
3C00
1800
FFF0
FFF8
FFF0
ENDCHAR
STARTCHAR three
ENCODING 51
SWIDTH 450 0
DWIDTH 14 0
BBX 13 21 0 -1
BITMAP
FEF0
FFF8
FFF0
00C0
01C0
00C0
0700
0700
0700
00C0
01C0
01C0
0030
0038
0038
E030
E038
E030
1FC0
3FC0
1FC0
ENDCHAR
STARTCHAR four
ENCODING 52
SWIDTH 450 0
DWIDTH 14 0
BBX 13 21 0 -1
BITMAP
06C0
07C0
07C0
0480
0FC0
0FC0
1C80
3DC0
19C0
30C0
71C0
71C0
FEF0
FFF8
FFF0
00C0
01C0
00C0
01C0
01C0
00C0
ENDCHAR
STARTCHAR five
ENCODING 53
SWIDTH 450 0
DWIDTH 14 0
BBX 13 21 0 -1
BITMAP
FEF0
FFF8
FFF0
E000
E000
E000
FEC0
FFC0
FFC0
0030
0038
0030
0030
0038
0030
E030
E038
E030
3FE0
7FF0
3FE0
ENDCHAR
STARTCHAR six
ENCODING 54
SWIDTH 450 0
DWIDTH 14 0
BBX 13 21 0 -1
BITMAP
0700
0700
0700
0400
0E00
0E00
1C00
3C00
1800
3FE0
7FF0
7FE0
E030
E038
E030
E030
E038
E030
7FE0
7FF0
3FE0
ENDCHAR
STARTCHAR seven
ENCODING 55
SWIDTH 450 0
DWIDTH 14 0
BBX 13 21 0 -1
BITMAP
FEF0
FFF8
FFF0
0060
00F0
0060
00C0
01C0
01C0
0380
0380
0380
0700
0700
0700
0C00
0E00
0C00
1800
3C00
1800
ENDCHAR
STARTCHAR eight
ENCODING 56
SWIDTH 450 0
DWIDTH 14 0
BBX 13 21 0 -1
BITMAP
3DE0
7FF0
7FE0
E030
E038
E030
E030
E038
E030
7FE0
7FF0
7FE0
E030
E038
E030
E030
E038
E030
7FE0
7FF0
3FE0
ENDCHAR
STARTCHAR nine
ENCODING 57
SWIDTH 450 0
DWIDTH 14 0
BBX 13 21 0 -1
BITMAP
3DE0
7FF0
7FE0
E030
E038
E030
E030
E038
E030
7FE0
7FF0
3FE0
00C0
01C0
01C0
0380
0380
0380
0700
0700
0600
ENDCHAR
STARTCHAR colon
ENCODING 58
SWIDTH 450 0
DWIDTH 14 0
BBX 6 15 2 -1
BITMAP
7C
FC
7C
7C
FC
7C
00
00
00
7C
FC
7C
7C
FC
78
ENDCHAR
STARTCHAR semicolon
ENCODING 59
SWIDTH 450 0
DWIDTH 14 0
BBX 6 20 2 -6
BITMAP
7C
FC
7C
7C
FC
7C
00
00
00
7C
FC
7C
7C
FC
7C
1C
1C
78
F0
60
ENDCHAR
STARTCHAR less
ENCODING 60
SWIDTH 450 0
DWIDTH 14 0
BBX 10 21 0 -1
BITMAP
00C0
01C0
01C0
0000
0700
0700
1E00
3C00
1800
E000
E000
E000
1800
3C00
1800
0700
0700
0700
01C0
01C0
00C0
ENDCHAR
STARTCHAR equal
ENCODING 61
SWIDTH 450 0
DWIDTH 14 0
BBX 13 9 0 5
BITMAP
FFF0
FFF8
FFF0
0000
0000
0000
FFF0
FFF8
FEF0
ENDCHAR
STARTCHAR greater
ENCODING 62
SWIDTH 450 0
DWIDTH 14 0
BBX 11 21 2 -1
BITMAP
6000
F000
6000
0000
1C00
1C00
1B00
0700
0700
00C0
00E0
00C0
0300
0700
0700
1C00
1C00
1C00
6000
F000
6000
ENDCHAR
STARTCHAR question
ENCODING 63
SWIDTH 450 0
DWIDTH 14 0
BBX 13 21 0 -1
BITMAP
3DE0
7FF0
7FE0
E030
E038
E030
0030
0038
0030
00C0
01C0
01C0
0600
0700
0700
0000
0000
0000
0700
0700
0600
ENDCHAR
STARTCHAR at
ENCODING 64
SWIDTH 450 0
DWIDTH 14 0
BBX 13 21 0 -1
BITMAP
1EC0
3FC0
3FC0
1000
7030
7038
F6F0
E7F8
E7F8
EC30
EE38
EC30
E7F0
E7F8
E7F0
3000
7000
3000
1FF0
3FF8
1FF0
ENDCHAR
STARTCHAR A
ENCODING 65
SWIDTH 450 0
DWIDTH 14 0
BBX 13 21 0 -1
BITMAP
0D80
0F80
0F80
0880
1DC0
39C0
38E0
70F0
7060
E030
E038
E030
FEF0
FFF8
FFF0
E030
E038
E030
E030
E038
E030
ENDCHAR
STARTCHAR B
ENCODING 66
SWIDTH 450 0
DWIDTH 14 0
BBX 13 21 0 -1
BITMAP
FEC0
FFC0
FFC0
3030
7038
7030
3030
7038
7030
3FE0
7FF0
7FE0
3030
7038
7030
3030
7038
3030
FFC0
FFC0
FEC0
ENDCHAR
STARTCHAR C
ENCODING 67
SWIDTH 450 0
DWIDTH 14 0
BBX 13 21 0 -1
BITMAP
3DE0
7FE0
7FF0
2020
E030
E038
E030
E000
E000
4000
E000
E000
4000
E000
E000
E030
E038
E030
3FE0
7FF0
3FE0
ENDCHAR
STARTCHAR D
ENCODING 68
SWIDTH 450 0
DWIDTH 14 0
BBX 13 21 0 -1
BITMAP
FEC0
FFC0
FFC0
3060
70F0
7060
3030
7038
7030
3030
7038
3030
7030
7038
3030
7060
70F0
3060
FFC0
FFC0
FFC0
ENDCHAR
STARTCHAR E
ENCODING 69
SWIDTH 450 0
DWIDTH 14 0
BBX 13 21 0 -1
BITMAP
FEF0
FFF8
FFF0
E000
E000
E000
E000
E000
E000
FFC0
FFC0
FFC0
E000
E000
E000
E000
E000
E000
FFF0
FFF8
FFF0
ENDCHAR
STARTCHAR F
ENCODING 70
SWIDTH 450 0
DWIDTH 14 0
BBX 13 21 0 -1
BITMAP
FEF0
FFF8
FFF0
E000
E000
E000
E000
E000
E000
FFC0
FFC0
FFC0
E000
E000
E000
E000
E000
E000
E000
E000
E000
ENDCHAR
STARTCHAR G
ENCODING 71
SWIDTH 450 0
DWIDTH 14 0
BBX 13 21 0 -1
BITMAP
3DE0
7FE0
7FF0
2020
E030
E038
E030
E000
E000
E7F0
E7F8
E7F0
E030
E038
E030
E030
E038
E030
7FE0
7FF0
3FE0
ENDCHAR
STARTCHAR H
ENCODING 72
SWIDTH 450 0
DWIDTH 14 0
BBX 13 21 0 -1
BITMAP
E030
E038
E038
E030
E038
E038
E030
E038
E030
FFF0
FFF8
FFF0
E030
E038
E030
E030
E038
E030
E030
E038
E030
ENDCHAR
STARTCHAR I
ENCODING 73
SWIDTH 450 0
DWIDTH 14 0
BBX 8 21 2 -1
BITMAP
7B
FF
7F
1C
1C
1C
1C
1C
1C
1C
1C
1C
1C
1C
1C
1C
1C
1C
7F
FF
7F
ENDCHAR
STARTCHAR J
ENCODING 74
SWIDTH 450 0
DWIDTH 14 0
BBX 12 21 0 -1
BITMAP
0FE0
0FF0
0FE0
00C0
01C0
01C0
00C0
01C0
01C0
00C0
01C0
01C0
00C0
01C0
01C0
E0C0
E1C0
E1C0
3F80
7F80
3F80
ENDCHAR
STARTCHAR K
ENCODING 75
SWIDTH 450 0
DWIDTH 14 0
BBX 13 21 0 -1
BITMAP
6030
E038
E030
4000
E1C0
E1C0
47C0
E700
E700
F800
FC00
F800
E600
E700
E700
E0C0
E1C0
E1C0
E030
E038
E030
ENDCHAR
STARTCHAR L
ENCODING 76
SWIDTH 450 0
DWIDTH 14 0
BBX 13 21 0 -1
BITMAP
E000
E000
E000
4000
E000
E000
6000
E000
E000
E000
E000
E000
E000
E000
E000
E000
E000
E000
FFF0
FFF8
FFF0
ENDCHAR
STARTCHAR M
ENCODING 77
SWIDTH 450 0
DWIDTH 14 0
BBX 13 21 0 -1
BITMAP
6030
E038
E038
E030
F9F8
FDF8
5DF0
EFB8
EFB0
E730
E738
E730
E030
E038
E030
E030
E038
E030
E030
E038
E030
ENDCHAR
STARTCHAR N
ENCODING 78
SWIDTH 450 0
DWIDTH 14 0
BBX 13 21 0 -1
BITMAP
6030
E038
E038
E030
F838
FC38
5C30
EE38
EC38
E630
E738
E730
E3B0
E3B8
E3B0
E1F0
E1F8
E0F0
E030
E038
E030
ENDCHAR
STARTCHAR O
ENCODING 79
SWIDTH 450 0
DWIDTH 14 0
BBX 13 21 0 -1
BITMAP
3FE0
7FF0
7FE0
E030
E038
E030
E030
E038
E030
E030
E038
E030
E030
E038
E030
E030
E038
E030
7FE0
7FF0
3FE0
ENDCHAR
STARTCHAR P
ENCODING 80
SWIDTH 450 0
DWIDTH 14 0
BBX 13 21 0 -1
BITMAP
FEC0
FFC0
FFC0
E030
E038
E030
E030
E038
E030
FFC0
FFC0
FFC0
E000
E000
E000
E000
E000
E000
E000
E000
E000
ENDCHAR
STARTCHAR Q
ENCODING 81
SWIDTH 450 0
DWIDTH 14 0
BBX 13 21 0 -1
BITMAP
3FE0
7FF0
7FE0
E030
E038
E030
E030
E038
E030
E030
E038
E030
E630
E738
E730
E0C0
E1C0
E1C0
3FB0
7FB8
3FB0
ENDCHAR
STARTCHAR R
ENCODING 82
SWIDTH 450 0
DWIDTH 14 0
BBX 13 21 0 -1
BITMAP
FEC0
FFC0
FFC0
E030
E038
E030
E030
E038
E030
FFC0
FFC0
FFC0
E0C0
E1C0
E0C0
E060
E0F0
E060
E030
E038
E030
ENDCHAR
STARTCHAR S
ENCODING 83
SWIDTH 450 0
DWIDTH 14 0
BBX 13 21 0 -1
BITMAP
3DE0
7FF0
7FE0
E030
E038
E030
E000
E000
E000
7FE0
7FF0
3FE0
0030
0038
0038
E030
E038
E030
3FE0
7FF0
3FE0
ENDCHAR
STARTCHAR T
ENCODING 84
SWIDTH 450 0
DWIDTH 14 0
BBX 13 21 0 -1
BITMAP
FEF0
FFF8
FFF0
0700
0700
0700
0700
0700
0700
0700
0700
0700
0700
0700
0700
0700
0700
0700
0700
0700
0600
ENDCHAR
STARTCHAR U
ENCODING 85
SWIDTH 450 0
DWIDTH 14 0
BBX 13 21 0 -1
BITMAP
E030
E038
E038
4030
E038
E038
6030
E038
E038
E030
E038
E030
E030
E038
E030
E030
E038
E030
7FE0
7FF0
3FE0
ENDCHAR
STARTCHAR V
ENCODING 86
SWIDTH 450 0
DWIDTH 14 0
BBX 13 21 0 -1
BITMAP
E030
E038
E038
E030
E038
E038
E030
E038
E030
7060
70F0
3060
18C0
3DC0
19C0
0F80
0F80
0F80
0700
0700
0600
ENDCHAR
STARTCHAR W
ENCODING 87
SWIDTH 450 0
DWIDTH 14 0
BBX 13 21 0 -1
BITMAP
E030
E038
E030
E030
E038
E038
E630
E738
E730
E630
E738
E730
EFB0
EFB8
EFB0
F9F0
FDF8
F8F0
7060
70F0
3060
ENDCHAR
STARTCHAR X
ENCODING 88
SWIDTH 450 0
DWIDTH 14 0
BBX 11 21 1 -1
BITMAP
60C0
E1E0
E1C0
2080
7380
7B80
3B80
1F00
1F00
0E00
0E00
0E00
1F00
1F00
1F00
3380
7B80
3180
E0C0
E1E0
60C0
ENDCHAR
STARTCHAR Y
ENCODING 89
SWIDTH 450 0
DWIDTH 14 0
BBX 13 21 0 -1
BITMAP
E030
E038
E030
2020
7070
70E0
38E0
3DC0
19C0
0F80
0F80
0F80
0700
0700
0700
0700
0700
0700
0700
0700
0600
ENDCHAR
STARTCHAR Z
ENCODING 90
SWIDTH 450 0
DWIDTH 14 0
BBX 11 21 1 -1
BITMAP
7FC0
FFE0
FFC0
0180
0380
0380
0700
0700
0700
0E00
0E00
0E00
1800
1C00
1800
3000
7800
3000
FFC0
FFE0
7FC0
ENDCHAR
STARTCHAR bracketleft
ENCODING 91
SWIDTH 450 0
DWIDTH 14 0
BBX 8 21 2 -1
BITMAP
7B
FF
7F
60
F0
60
60
F0
60
60
F0
60
60
F0
60
60
F0
60
7F
FF
7F
ENDCHAR
STARTCHAR backslash
ENCODING 92
SWIDTH 450 0
DWIDTH 14 0
BBX 11 21 1 -1
BITMAP
6000
E000
E000
3000
7800
3000
1800
1C00
1800
0E00
0E00
0E00
0700
0700
0700
0380
0380
0180
00C0
01E0
00C0
ENDCHAR
STARTCHAR bracketright
ENCODING 93
SWIDTH 450 0
DWIDTH 14 0
BBX 8 21 2 -1
BITMAP
7B
FF
7F
03
07
07
03
07
07
03
07
07
03
07
07
03
07
03
7F
FF
7F
ENDCHAR
STARTCHAR asciicircum
ENCODING 94
SWIDTH 450 0
DWIDTH 14 0
BBX 13 9 0 11
BITMAP
0700
0700
0700
18C0
3DC0
19C0
E030
E038
E030
ENDCHAR
STARTCHAR underscore
ENCODING 95
SWIDTH 450 0
DWIDTH 14 0
BBX 13 3 0 -6
BITMAP
FFF0
FFF8
FEF0
ENDCHAR
STARTCHAR grave
ENCODING 96
SWIDTH 450 0
DWIDTH 14 0
BBX 4 6 4 14
BITMAP
C0
E0
C0
70
70
60
ENDCHAR
STARTCHAR a
ENCODING 97
SWIDTH 450 0
DWIDTH 14 0
BBX 13 15 0 -1
BITMAP
1FC0
3FC0
1FC0
0060
00F0
0060
3FE0
7FF0
7FE0
E060
E0F0
E060
3FB0
7FB8
3FB0
ENDCHAR
STARTCHAR b
ENCODING 98
SWIDTH 450 0
DWIDTH 14 0
BBX 12 21 0 -1
BITMAP
E000
E000
E000
E000
E000
E000
FEC0
FFC0
FFC0
E060
E0F0
E060
E060
E0F0
E060
E060
E0F0
E060
FFC0
FFC0
FEC0
ENDCHAR
STARTCHAR c
ENCODING 99
SWIDTH 450 0
DWIDTH 14 0
BBX 12 15 0 -1
BITMAP
3FE0
7FF0
7FE0
E000
E000
E000
E000
E000
E000
E000
E000
E000
7FE0
7FF0
3FE0
ENDCHAR
STARTCHAR d
ENCODING 100
SWIDTH 450 0
DWIDTH 14 0
BBX 12 21 0 -1
BITMAP
0060
00F0
0060
0060
00F0
0060
3FE0
7FF0
7FE0
E060
E0F0
E060
E060
E0F0
E060
E060
E0F0
E060
7FE0
7FF0
3FE0
ENDCHAR
STARTCHAR e
ENCODING 101
SWIDTH 450 0
DWIDTH 14 0
BBX 13 15 0 -1
BITMAP
3FE0
7FF0
7FE0
E030
E038
E030
FEF0
FFF8
FFF0
E000
E000
E000
7FE0
7FF0
3FE0
ENDCHAR
STARTCHAR f
ENCODING 102
SWIDTH 450 0
DWIDTH 14 0
BBX 10 21 0 -1
BITMAP
06C0
07C0
07C0
0C00
0E00
0C00
0C00
0E00
0C00
FFC0
FFC0
FFC0
0C00
0E00
0C00
0C00
0E00
0C00
0C00
0E00
0C00
ENDCHAR
STARTCHAR g
ENCODING 103
SWIDTH 450 0
DWIDTH 14 0
BBX 12 20 0 -6
BITMAP
7FE0
7FF0
7D60
E060
E0F0
E060
E060
E0F0
E060
E060
E0F0
3260
7FE0
7FF0
3DE0
00F0
0060
1FC0
3FC0
1EC0
ENDCHAR
STARTCHAR h
ENCODING 104
SWIDTH 450 0
DWIDTH 14 0
BBX 12 21 0 -1
BITMAP
E000
E000
E000
E000
E000
E000
FFC0
FFC0
FFC0
E060
E0F0
E060
E060
E0F0
E060
E060
E0F0
E060
E060
E0F0
E060
ENDCHAR
STARTCHAR i
ENCODING 105
SWIDTH 450 0
DWIDTH 14 0
BBX 8 21 1 -1
BITMAP
18
1C
18
00
00
00
78
FC
F8
18
1C
18
18
1C
18
18
1C
18
FF
FF
7F
ENDCHAR
STARTCHAR j
ENCODING 106
SWIDTH 450 0
DWIDTH 14 0
BBX 9 24 1 -4
BITMAP
0180
0380
0380
0000
0000
0000
0180
0380
0380
0180
0380
0380
0180
0380
0380
0180
0380
0380
0180
0380
0180
FF00
FF00
7F00
ENDCHAR
STARTCHAR k
ENCODING 107
SWIDTH 450 0
DWIDTH 14 0
BBX 11 21 1 -1
BITMAP
6000
E000
E000
6000
E000
E000
60C0
E1E0
E0C0
6700
E700
E700
7800
FC00
F800
6700
E700
E700
60C0
E1E0
60C0
ENDCHAR
STARTCHAR l
ENCODING 108
SWIDTH 450 0
DWIDTH 14 0
BBX 8 21 1 -1
BITMAP
78
FC
F8
18
1C
18
18
1C
18
18
1C
18
18
1C
18
18
1C
18
FF
FF
7F
ENDCHAR
STARTCHAR m
ENCODING 109
SWIDTH 450 0
DWIDTH 14 0
BBX 13 15 0 -1
BITMAP
3FE0
7FF0
7FE0
E730
E738
E730
E730
E738
E730
E730
E738
E730
E730
E738
E630
ENDCHAR
STARTCHAR n
ENCODING 110
SWIDTH 450 0
DWIDTH 14 0
BBX 12 15 0 -1
BITMAP
FFC0
FFC0
FFC0
E060
E0F0
E060
E060
E0F0
E060
E060
E0F0
E060
E060
E0F0
E060
ENDCHAR
STARTCHAR o
ENCODING 111
SWIDTH 450 0
DWIDTH 14 0
BBX 13 15 0 -1
BITMAP
3FE0
7FF0
7FE0
E030
E038
E030
E030
E038
E030
E030
E038
E030
7FE0
7FF0
3FE0
ENDCHAR
STARTCHAR p
ENCODING 112
SWIDTH 450 0
DWIDTH 14 0
BBX 12 20 0 -6
BITMAP
FFC0
FFC0
5EE0
E060
E0F0
E060
E060
E0F0
E060
E070
E0E0
6540
FFC0
FFC0
FEC0
E000
E000
4000
E000
E000
ENDCHAR
STARTCHAR q
ENCODING 113
SWIDTH 450 0
DWIDTH 14 0
BBX 12 20 1 -6
BITMAP
3FE0
7FF0
7DA0
E070
E070
6060
6060
E070
E060
E060
E070
2A60
7FF0
7FF0
3DE0
0070
0070
0060
0070
0060
ENDCHAR
STARTCHAR r
ENCODING 114
SWIDTH 450 0
DWIDTH 14 0
BBX 12 15 0 -1
BITMAP
EFE0
EFF0
EFE0
F800
FC00
F800
E000
E000
E000
E000
E000
E000
E000
E000
E000
ENDCHAR
STARTCHAR s
ENCODING 115
SWIDTH 450 0
DWIDTH 14 0
BBX 13 15 0 -1
BITMAP
3FE0
7FF0
7FE0
E000
E000
E000
3FE0
7FF0
7FE0
0030
0038
0030
7FE0
7FF0
3FE0
ENDCHAR
STARTCHAR t
ENCODING 116
SWIDTH 450 0
DWIDTH 14 0
BBX 12 21 0 -1
BITMAP
1800
3C00
1800
1800
3C00
1800
FFC0
FFC0
FFC0
1800
3C00
1800
1800
3C00
1800
1800
3C00
1800
0FE0
0FF0
0FE0
ENDCHAR
STARTCHAR u
ENCODING 117
SWIDTH 450 0
DWIDTH 14 0
BBX 13 15 0 -1
BITMAP
E060
E0F0
E060
E060
E0F0
E060
E060
E0F0
E060
E060
E0F0
E060
7FB0
7FB8
3FB0
ENDCHAR
STARTCHAR v
ENCODING 118
SWIDTH 450 0
DWIDTH 14 0
BBX 13 15 0 -1
BITMAP
E030
E038
E030
3060
70F0
7060
18C0
3DC0
19C0
0F80
0F80
0F80
0700
0700
0600
ENDCHAR
STARTCHAR w
ENCODING 119
SWIDTH 450 0
DWIDTH 14 0
BBX 13 15 0 -1
BITMAP
E030
E038
E030
E630
E738
E730
EFB0
EFB8
EFB0
F9F0
FDF8
F8F0
7060
70F0
3060
ENDCHAR
STARTCHAR x
ENCODING 120
SWIDTH 450 0
DWIDTH 14 0
BBX 10 15 0 -1
BITMAP
E0C0
E1C0
E1C0
3380
7380
7380
0C00
0E00
0C00
3380
7380
7380
E0C0
E1C0
E0C0
ENDCHAR
STARTCHAR y
ENCODING 121
SWIDTH 450 0
DWIDTH 14 0
BBX 13 20 0 -6
BITMAP
E030
E038
E030
7060
70F0
38E0
19C0
3DC0
18C0
0F80
0F80
0700
0700
0700
0E00
0E00
0E00
1800
3C00
1800
ENDCHAR
STARTCHAR z
ENCODING 122
SWIDTH 450 0
DWIDTH 14 0
BBX 10 15 0 -1
BITMAP
FFC0
FFC0
FFC0
0380
0380
0380
0C00
0E00
0C00
3000
7000
7000
FFC0
FFC0
FFC0
ENDCHAR
STARTCHAR braceleft
ENCODING 123
SWIDTH 450 0
DWIDTH 14 0
BBX 10 21 2 -1
BITMAP
0F80
0FC0
0F80
1C00
1C00
1C00
1C00
1C00
1C00
6000
F000
6000
1C00
1C00
1C00
1C00
1C00
1C00
0F80
0FC0
0F80
ENDCHAR
STARTCHAR bar
ENCODING 124
SWIDTH 450 0
DWIDTH 14 0
BBX 3 21 5 -1
BITMAP
C0
E0
E0
E0
E0
E0
E0
E0
C0
00
00
00
C0
E0
E0
E0
E0
E0
E0
E0
C0
ENDCHAR
STARTCHAR braceright
ENCODING 125
SWIDTH 450 0
DWIDTH 14 0
BBX 9 21 1 -1
BITMAP
7800
FC00
F800
0C00
0E00
0E00
0E00
0E00
0E00
0180
0380
0380
0E00
0E00
0E00
0E00
0E00
0E00
F800
FC00
7800
ENDCHAR
STARTCHAR asciitilde
ENCODING 126
SWIDTH 450 0
DWIDTH 14 0
BBX 13 9 0 11
BITMAP
3C00
7E00
7C00
E730
E738
E730
03E0
03F0
03E0
ENDCHAR
STARTCHAR exclamdown
ENCODING 161
SWIDTH 450 0
DWIDTH 14 0
BBX 4 21 5 -1
BITMAP
F0
F0
F0
00
00
00
00
00
00
F0
F0
F0
F0
F0
F0
F0
F0
F0
F0
F0
F0
ENDCHAR
STARTCHAR sterling
ENCODING 163
SWIDTH 450 0
DWIDTH 14 0
BBX 13 21 0 -1
BITMAP
0DE0
0FE0
0FF0
0820
1C30
3838
1830
3C00
1800
FF00
FF00
FF00
1800
3C00
1800
1800
3C00
1800
FFF0
FFF8
FFF0
ENDCHAR
STARTCHAR currency
ENCODING 164
SWIDTH 450 0
DWIDTH 14 0
BBX 13 21 0 -1
BITMAP
E030
E038
E030
0500
1FC0
3FC0
3AE0
70F0
7060
E030
E038
E030
7060
70F0
3060
1FC0
3FC0
1FC0
E030
E038
E030
ENDCHAR
STARTCHAR yen
ENCODING 165
SWIDTH 450 0
DWIDTH 14 0
BBX 13 21 0 -1
BITMAP
E030
E038
E030
18C0
3DC0
19C0
FFF0
FFF8
FFF0
0700
0700
0700
FEF0
FFF8
FFF0
0700
0700
0700
0700
0700
0600
ENDCHAR
STARTCHAR dieresis
ENCODING 168
SWIDTH 450 0
DWIDTH 14 0
BBX 8 3 2 17
BITMAP
67
F7
63
ENDCHAR
STARTCHAR .notdef
ENCODING -1
SWIDTH 500 0
DWIDTH 16 0
BBX 10 33 3 -7
BITMAP
FFC0
FFC0
C0C0
F3C0
C0C0
FCC0
C3C0
D3C0
D3C0
C0C0
FFC0
C0C0
F3C0
C2C0
FEC0
C0C0
FFC0
D0C0
DEC0
C0C0
FFC0
FFC0
C0C0
DEC0
DEC0
C0C0
FFC0
C8C0
F7C0
C8C0
FFC0
FFC0
FFC0
ENDCHAR
ENDFONT
